<mxfile host="Electron" modified="2024-01-04T01:22:28.593Z" agent="Mozilla/5.0 (Windows NT 10.0; Win64; x64) AppleWebKit/537.36 (KHTML, like Gecko) draw.io/22.1.16 Chrome/120.0.6099.109 Electron/28.1.0 Safari/537.36" etag="2S0K3qCTz7BWgdDfGElx" version="22.1.16" type="device">
  <diagram id="C5RBs43oDa-KdzZeNtuy" name="Page-1">
    <mxGraphModel dx="1288" dy="1752" grid="1" gridSize="10" guides="1" tooltips="1" connect="1" arrows="1" fold="1" page="1" pageScale="1" pageWidth="827" pageHeight="1169" math="0" shadow="0">
      <root>
        <mxCell id="WIyWlLk6GJQsqaUBKTNV-0" />
        <mxCell id="WIyWlLk6GJQsqaUBKTNV-1" parent="WIyWlLk6GJQsqaUBKTNV-0" />
        <mxCell id="uIePogzSz7xyQ7xrDT_M-2" value="&lt;b&gt;&lt;font style=&quot;font-size: 14px;&quot;&gt;method_no_info&lt;/font&gt;&lt;/b&gt;&lt;br&gt;Default/Revert&lt;br&gt;proposed_name=current_name" style="rounded=0;whiteSpace=wrap;html=1;" vertex="1" parent="WIyWlLk6GJQsqaUBKTNV-1">
          <mxGeometry x="214" y="330" width="200" height="60" as="geometry" />
        </mxCell>
        <mxCell id="uIePogzSz7xyQ7xrDT_M-3" value="&lt;font style=&quot;font-size: 14px;&quot;&gt;read_remote0_info&lt;/font&gt;&lt;br&gt;&lt;br&gt;Populate model info&lt;br&gt;from remote_db0." style="shape=cylinder3;whiteSpace=wrap;html=1;boundedLbl=1;backgroundOutline=1;size=15;" vertex="1" parent="WIyWlLk6GJQsqaUBKTNV-1">
          <mxGeometry x="140" y="640" width="140" height="110" as="geometry" />
        </mxCell>
        <mxCell id="uIePogzSz7xyQ7xrDT_M-4" value="search_remote0_db1" style="shape=cylinder3;whiteSpace=wrap;html=1;boundedLbl=1;backgroundOutline=1;size=15;" vertex="1" parent="WIyWlLk6GJQsqaUBKTNV-1">
          <mxGeometry x="140" y="510" width="140" height="110" as="geometry" />
        </mxCell>
        <mxCell id="uIePogzSz7xyQ7xrDT_M-5" value="&lt;h1&gt;main.py&lt;/h1&gt;" style="shape=cube;whiteSpace=wrap;html=1;boundedLbl=1;backgroundOutline=1;darkOpacity=0.05;darkOpacity2=0.1;" vertex="1" parent="WIyWlLk6GJQsqaUBKTNV-1">
          <mxGeometry x="150" y="10" width="640" height="140" as="geometry" />
        </mxCell>
        <mxCell id="uIePogzSz7xyQ7xrDT_M-6" value="&lt;h1&gt;ui.py&lt;/h1&gt;" style="shape=cube;whiteSpace=wrap;html=1;boundedLbl=1;backgroundOutline=1;darkOpacity=0.05;darkOpacity2=0.1;align=left;" vertex="1" parent="WIyWlLk6GJQsqaUBKTNV-1">
          <mxGeometry x="-790" y="190" width="900" height="1740" as="geometry" />
        </mxCell>
        <mxCell id="uIePogzSz7xyQ7xrDT_M-7" value="&lt;br&gt;&lt;b style=&quot;border-color: rgb(0, 0, 0); color: rgb(240, 240, 240); font-family: Helvetica; font-size: 12px; font-style: normal; font-variant-ligatures: normal; font-variant-caps: normal; letter-spacing: normal; orphans: 2; text-align: center; text-indent: 0px; text-transform: none; widows: 2; word-spacing: 0px; -webkit-text-stroke-width: 0px; background-color: rgb(27, 29, 30); text-decoration-thickness: initial; text-decoration-style: initial; text-decoration-color: initial;&quot;&gt;&lt;font style=&quot;border-color: rgb(0, 0, 0); font-size: 14px;&quot;&gt;search_local&lt;/font&gt;&lt;/b&gt;&lt;br style=&quot;border-color: rgb(0, 0, 0); color: rgb(240, 240, 240); font-family: Helvetica; font-size: 12px; font-style: normal; font-variant-ligatures: normal; font-variant-caps: normal; font-weight: 400; letter-spacing: normal; orphans: 2; text-align: center; text-indent: 0px; text-transform: none; widows: 2; word-spacing: 0px; -webkit-text-stroke-width: 0px; background-color: rgb(27, 29, 30); text-decoration-thickness: initial; text-decoration-style: initial; text-decoration-color: initial;&quot;&gt;&lt;span style=&quot;color: rgb(240, 240, 240); font-family: Helvetica; font-size: 12px; font-style: normal; font-variant-ligatures: normal; font-variant-caps: normal; font-weight: 400; letter-spacing: normal; orphans: 2; text-align: center; text-indent: 0px; text-transform: none; widows: 2; word-spacing: 0px; -webkit-text-stroke-width: 0px; background-color: rgb(27, 29, 30); text-decoration-thickness: initial; text-decoration-style: initial; text-decoration-color: initial; float: none; display: inline !important;&quot;&gt;&lt;br&gt;check for local info files matching the current model name.&lt;/span&gt;&lt;br&gt;" style="shape=internalStorage;whiteSpace=wrap;html=1;dx=15;dy=15;rounded=1;arcSize=8;strokeWidth=2;" vertex="1" parent="WIyWlLk6GJQsqaUBKTNV-1">
          <mxGeometry x="290" y="490" width="170" height="130" as="geometry" />
        </mxCell>
        <mxCell id="uIePogzSz7xyQ7xrDT_M-8" value="&lt;font style=&quot;border-color: rgb(0, 0, 0); color: rgb(240, 240, 240); font-family: Helvetica; font-style: normal; font-variant-ligatures: normal; font-variant-caps: normal; letter-spacing: normal; orphans: 2; text-align: center; text-indent: 0px; text-transform: none; widows: 2; word-spacing: 0px; -webkit-text-stroke-width: 0px; background-color: rgb(27, 29, 30); text-decoration-thickness: initial; text-decoration-style: initial; text-decoration-color: initial; font-size: 14px;&quot;&gt;&lt;b&gt;read_local_info&lt;/b&gt;&lt;/font&gt;&lt;br style=&quot;border-color: rgb(0, 0, 0); color: rgb(240, 240, 240); font-family: Helvetica; font-size: 12px; font-style: normal; font-variant-ligatures: normal; font-variant-caps: normal; font-weight: 400; letter-spacing: normal; orphans: 2; text-align: center; text-indent: 0px; text-transform: none; widows: 2; word-spacing: 0px; -webkit-text-stroke-width: 0px; background-color: rgb(27, 29, 30); text-decoration-thickness: initial; text-decoration-style: initial; text-decoration-color: initial;&quot;&gt;&lt;span style=&quot;color: rgb(240, 240, 240); font-family: Helvetica; font-size: 12px; font-style: normal; font-variant-ligatures: normal; font-variant-caps: normal; font-weight: 400; letter-spacing: normal; orphans: 2; text-align: center; text-indent: 0px; text-transform: none; widows: 2; word-spacing: 0px; -webkit-text-stroke-width: 0px; background-color: rgb(27, 29, 30); text-decoration-thickness: initial; text-decoration-style: initial; text-decoration-color: initial; float: none; display: inline !important;&quot;&gt;&lt;br&gt;Populate model info&lt;/span&gt;&lt;br style=&quot;border-color: rgb(0, 0, 0); color: rgb(240, 240, 240); font-family: Helvetica; font-size: 12px; font-style: normal; font-variant-ligatures: normal; font-variant-caps: normal; font-weight: 400; letter-spacing: normal; orphans: 2; text-align: center; text-indent: 0px; text-transform: none; widows: 2; word-spacing: 0px; -webkit-text-stroke-width: 0px; background-color: rgb(27, 29, 30); text-decoration-thickness: initial; text-decoration-style: initial; text-decoration-color: initial;&quot;&gt;&lt;span style=&quot;color: rgb(240, 240, 240); font-family: Helvetica; font-size: 12px; font-style: normal; font-variant-ligatures: normal; font-variant-caps: normal; font-weight: 400; letter-spacing: normal; orphans: 2; text-align: center; text-indent: 0px; text-transform: none; widows: 2; word-spacing: 0px; -webkit-text-stroke-width: 0px; background-color: rgb(27, 29, 30); text-decoration-thickness: initial; text-decoration-style: initial; text-decoration-color: initial; float: none; display: inline !important;&quot;&gt;from local file.&lt;br&gt;&lt;/span&gt;Overwrite remote data if present." style="shape=internalStorage;whiteSpace=wrap;html=1;dx=15;dy=15;rounded=1;arcSize=8;strokeWidth=2;" vertex="1" parent="WIyWlLk6GJQsqaUBKTNV-1">
          <mxGeometry x="290" y="640" width="170" height="120" as="geometry" />
        </mxCell>
        <mxCell id="uIePogzSz7xyQ7xrDT_M-11" value="Run&amp;nbsp;&lt;br&gt;FileRAVEN.bat" style="html=1;dashed=0;whiteSpace=wrap;shape=mxgraph.dfd.start" vertex="1" parent="WIyWlLk6GJQsqaUBKTNV-1">
          <mxGeometry x="168" y="-90" width="124" height="50" as="geometry" />
        </mxCell>
        <mxCell id="uIePogzSz7xyQ7xrDT_M-12" value="&lt;div style=&quot;text-align: center;&quot;&gt;&lt;span style=&quot;background-color: initial;&quot;&gt;&lt;b&gt;&lt;font style=&quot;font-size: 14px;&quot;&gt;main_menu&lt;/font&gt;&lt;/b&gt;&lt;/span&gt;&lt;/div&gt;&lt;ol&gt;&lt;li&gt;Select Models to Process&lt;/li&gt;&lt;li&gt;Undo Last Renaming Operation&lt;/li&gt;&lt;li&gt;Edit Naming Templates&lt;/li&gt;&lt;li&gt;Edit Model Information&lt;/li&gt;&lt;li&gt;Quit&lt;/li&gt;&lt;/ol&gt;" style="strokeWidth=3;html=1;shape=mxgraph.flowchart.display;whiteSpace=wrap;align=left;perimeterSpacing=0;fillColor=#0050ef;fontColor=#ffffff;strokeColor=#BCBCBC;fillStyle=solid;" vertex="1" parent="WIyWlLk6GJQsqaUBKTNV-1">
          <mxGeometry x="-322" y="236" width="262" height="210" as="geometry" />
        </mxCell>
        <mxCell id="uIePogzSz7xyQ7xrDT_M-13" value="" style="endArrow=classic;html=1;rounded=0;exitX=0.5;exitY=0.5;exitDx=0;exitDy=25;exitPerimeter=0;entryX=0.5;entryY=0;entryDx=0;entryDy=0;strokeWidth=3;" edge="1" parent="WIyWlLk6GJQsqaUBKTNV-1" source="uIePogzSz7xyQ7xrDT_M-11" target="uIePogzSz7xyQ7xrDT_M-14">
          <mxGeometry width="50" height="50" relative="1" as="geometry">
            <mxPoint x="270" y="-100" as="sourcePoint" />
            <mxPoint x="-10" y="80" as="targetPoint" />
          </mxGeometry>
        </mxCell>
        <mxCell id="uIePogzSz7xyQ7xrDT_M-14" value="main" style="html=1;dashed=0;whiteSpace=wrap;" vertex="1" parent="WIyWlLk6GJQsqaUBKTNV-1">
          <mxGeometry x="180" y="40" width="100" height="50" as="geometry" />
        </mxCell>
        <mxCell id="uIePogzSz7xyQ7xrDT_M-15" value="" style="endArrow=classic;html=1;rounded=0;entryX=0.5;entryY=0;entryDx=0;entryDy=0;exitX=0;exitY=0.5;exitDx=0;exitDy=0;entryPerimeter=0;strokeWidth=3;" edge="1" parent="WIyWlLk6GJQsqaUBKTNV-1" source="uIePogzSz7xyQ7xrDT_M-14" target="uIePogzSz7xyQ7xrDT_M-12">
          <mxGeometry width="50" height="50" relative="1" as="geometry">
            <mxPoint x="230" y="480" as="sourcePoint" />
            <mxPoint x="180" y="530" as="targetPoint" />
            <Array as="points">
              <mxPoint x="-191" y="65" />
            </Array>
          </mxGeometry>
        </mxCell>
        <mxCell id="uIePogzSz7xyQ7xrDT_M-21" value="" style="endArrow=classic;html=1;rounded=0;labelBackgroundColor=default;strokeColor=default;strokeWidth=3;align=center;verticalAlign=middle;fontFamily=Helvetica;fontSize=11;fontColor=default;shape=connector;exitX=0.2;exitY=0.14;exitDx=0;exitDy=0;exitPerimeter=0;entryX=0.367;entryY=0.081;entryDx=0;entryDy=0;entryPerimeter=0;" edge="1" parent="WIyWlLk6GJQsqaUBKTNV-1" source="uIePogzSz7xyQ7xrDT_M-12" target="uIePogzSz7xyQ7xrDT_M-6">
          <mxGeometry relative="1" as="geometry">
            <mxPoint x="-40" y="420" as="sourcePoint" />
            <mxPoint x="190" y="270" as="targetPoint" />
          </mxGeometry>
        </mxCell>
        <mxCell id="uIePogzSz7xyQ7xrDT_M-22" value="&lt;font style=&quot;font-size: 14px;&quot;&gt;Undo&lt;/font&gt;" style="edgeLabel;resizable=0;html=1;align=center;verticalAlign=middle;fontFamily=Helvetica;fontSize=11;fontColor=default;" connectable="0" vertex="1" parent="uIePogzSz7xyQ7xrDT_M-21">
          <mxGeometry relative="1" as="geometry" />
        </mxCell>
        <mxCell id="uIePogzSz7xyQ7xrDT_M-24" value="" style="endArrow=classic;html=1;rounded=0;labelBackgroundColor=default;strokeColor=default;strokeWidth=3;align=center;verticalAlign=middle;fontFamily=Helvetica;fontSize=11;fontColor=default;shape=connector;exitX=0.777;exitY=1.017;exitDx=0;exitDy=0;exitPerimeter=0;" edge="1" parent="WIyWlLk6GJQsqaUBKTNV-1" source="uIePogzSz7xyQ7xrDT_M-12">
          <mxGeometry relative="1" as="geometry">
            <mxPoint x="-40" y="420" as="sourcePoint" />
            <mxPoint x="218.33333333333334" y="1000" as="targetPoint" />
          </mxGeometry>
        </mxCell>
        <mxCell id="uIePogzSz7xyQ7xrDT_M-25" value="Label" style="edgeLabel;resizable=0;html=1;align=center;verticalAlign=middle;labelBackgroundColor=default;fontFamily=Helvetica;fontSize=11;fontColor=default;fillColor=none;gradientColor=none;" connectable="0" vertex="1" parent="uIePogzSz7xyQ7xrDT_M-24">
          <mxGeometry relative="1" as="geometry" />
        </mxCell>
        <mxCell id="uIePogzSz7xyQ7xrDT_M-26" value="&lt;font style=&quot;font-size: 14px;&quot;&gt;Edit&lt;br&gt;Templates&lt;/font&gt;" style="edgeLabel;html=1;align=center;verticalAlign=middle;resizable=0;points=[];fontSize=11;fontFamily=Helvetica;fontColor=default;" vertex="1" connectable="0" parent="uIePogzSz7xyQ7xrDT_M-24">
          <mxGeometry x="-0.0545" y="-3" relative="1" as="geometry">
            <mxPoint as="offset" />
          </mxGeometry>
        </mxCell>
        <mxCell id="uIePogzSz7xyQ7xrDT_M-30" value="" style="endArrow=classic;html=1;rounded=0;labelBackgroundColor=default;strokeColor=default;strokeWidth=3;align=center;verticalAlign=middle;fontFamily=Helvetica;fontSize=11;fontColor=default;shape=connector;exitX=1;exitY=0.5;exitDx=0;exitDy=0;exitPerimeter=0;" edge="1" parent="WIyWlLk6GJQsqaUBKTNV-1" source="uIePogzSz7xyQ7xrDT_M-12">
          <mxGeometry relative="1" as="geometry">
            <mxPoint x="-50" y="351" as="sourcePoint" />
            <mxPoint x="160" y="350" as="targetPoint" />
          </mxGeometry>
        </mxCell>
        <mxCell id="uIePogzSz7xyQ7xrDT_M-31" value="Label" style="edgeLabel;resizable=0;html=1;align=center;verticalAlign=middle;labelBackgroundColor=default;fontFamily=Helvetica;fontSize=11;fontColor=default;fillColor=none;gradientColor=none;" connectable="0" vertex="1" parent="uIePogzSz7xyQ7xrDT_M-30">
          <mxGeometry relative="1" as="geometry" />
        </mxCell>
        <mxCell id="uIePogzSz7xyQ7xrDT_M-32" value="&lt;font style=&quot;font-size: 14px;&quot;&gt;Edit&lt;br&gt;Model Info&lt;/font&gt;" style="edgeLabel;html=1;align=center;verticalAlign=middle;resizable=0;points=[];fontSize=11;fontFamily=Helvetica;fontColor=default;" vertex="1" connectable="0" parent="uIePogzSz7xyQ7xrDT_M-30">
          <mxGeometry x="-0.0545" y="-3" relative="1" as="geometry">
            <mxPoint as="offset" />
          </mxGeometry>
        </mxCell>
        <mxCell id="uIePogzSz7xyQ7xrDT_M-33" value="" style="endArrow=classic;html=1;rounded=0;labelBackgroundColor=default;strokeColor=default;strokeWidth=3;align=center;verticalAlign=middle;fontFamily=Helvetica;fontSize=11;fontColor=default;shape=connector;exitX=0.807;exitY=0.013;exitDx=0;exitDy=0;exitPerimeter=0;entryX=0;entryY=0.5;entryDx=0;entryDy=0;entryPerimeter=0;" edge="1" parent="WIyWlLk6GJQsqaUBKTNV-1" source="uIePogzSz7xyQ7xrDT_M-12" target="uIePogzSz7xyQ7xrDT_M-35">
          <mxGeometry relative="1" as="geometry">
            <mxPoint x="-20" y="550" as="sourcePoint" />
            <mxPoint x="80" y="550" as="targetPoint" />
            <Array as="points">
              <mxPoint x="-110" y="120" />
            </Array>
          </mxGeometry>
        </mxCell>
        <mxCell id="uIePogzSz7xyQ7xrDT_M-34" value="&lt;font style=&quot;font-size: 14px;&quot;&gt;Quit&lt;/font&gt;" style="edgeLabel;resizable=0;html=1;align=center;verticalAlign=middle;labelBackgroundColor=default;fontFamily=Helvetica;fontSize=11;fontColor=default;fillColor=none;gradientColor=none;" connectable="0" vertex="1" parent="uIePogzSz7xyQ7xrDT_M-33">
          <mxGeometry relative="1" as="geometry" />
        </mxCell>
        <mxCell id="uIePogzSz7xyQ7xrDT_M-35" value="Quit/End" style="html=1;dashed=0;whiteSpace=wrap;shape=mxgraph.dfd.start" vertex="1" parent="WIyWlLk6GJQsqaUBKTNV-1">
          <mxGeometry x="180" y="90" width="100" height="50" as="geometry" />
        </mxCell>
        <mxCell id="uIePogzSz7xyQ7xrDT_M-36" value="&lt;b style=&quot;background-color: initial;&quot;&gt;&lt;font style=&quot;font-size: 14px;&quot;&gt;select_models&lt;/font&gt;&lt;/b&gt;&lt;br&gt;&lt;span style=&quot;background-color: initial;&quot;&gt;&lt;br&gt;OS file dialog gui where user&lt;br&gt;&amp;nbsp;may select Model_files or folders &lt;br&gt;containing Model_files&lt;br&gt;&lt;/span&gt;&lt;br&gt;default path=&lt;br&gt;&amp;nbsp;fileRAVEN_config.model_home&lt;br&gt;note: default to OS default &lt;br&gt;dpwnloads folder" style="strokeWidth=3;html=1;shape=mxgraph.flowchart.display;whiteSpace=wrap;align=center;perimeterSpacing=0;fillColor=#0050ef;fontColor=#ffffff;strokeColor=#BCBCBC;fillStyle=solid;" vertex="1" parent="WIyWlLk6GJQsqaUBKTNV-1">
          <mxGeometry x="-550" y="630" width="262" height="210" as="geometry" />
        </mxCell>
        <mxCell id="uIePogzSz7xyQ7xrDT_M-37" value="" style="endArrow=classic;html=1;rounded=0;exitX=0.2;exitY=0.86;exitDx=0;exitDy=0;exitPerimeter=0;entryX=0.5;entryY=0;entryDx=0;entryDy=0;entryPerimeter=0;strokeWidth=3;" edge="1" parent="WIyWlLk6GJQsqaUBKTNV-1" source="uIePogzSz7xyQ7xrDT_M-12" target="uIePogzSz7xyQ7xrDT_M-36">
          <mxGeometry relative="1" as="geometry">
            <mxPoint x="-40" y="420" as="sourcePoint" />
            <mxPoint x="60" y="420" as="targetPoint" />
            <Array as="points">
              <mxPoint x="-419" y="420" />
            </Array>
          </mxGeometry>
        </mxCell>
        <mxCell id="uIePogzSz7xyQ7xrDT_M-38" value="Label" style="edgeLabel;resizable=0;html=1;align=center;verticalAlign=middle;" connectable="0" vertex="1" parent="uIePogzSz7xyQ7xrDT_M-37">
          <mxGeometry relative="1" as="geometry" />
        </mxCell>
        <mxCell id="uIePogzSz7xyQ7xrDT_M-39" value="&lt;font style=&quot;font-size: 14px;&quot;&gt;Select &lt;br&gt;Models&lt;/font&gt;" style="edgeLabel;html=1;align=center;verticalAlign=middle;resizable=0;points=[];fontSize=11;fontFamily=Helvetica;fontColor=default;" vertex="1" connectable="0" parent="uIePogzSz7xyQ7xrDT_M-37">
          <mxGeometry x="-0.0198" y="1" relative="1" as="geometry">
            <mxPoint y="4" as="offset" />
          </mxGeometry>
        </mxCell>
        <mxCell id="uIePogzSz7xyQ7xrDT_M-41" value="&lt;b style=&quot;background-color: initial;&quot;&gt;&lt;font style=&quot;font-size: 14px;&quot;&gt;select_models&lt;/font&gt;&lt;/b&gt;&lt;br&gt;&lt;span style=&quot;background-color: initial;&quot;&gt;&lt;br&gt;OS file dialog gui where user&lt;br&gt;&amp;nbsp;may select Model_files or folders &lt;br&gt;containing Model_files&lt;br&gt;&lt;/span&gt;&lt;br&gt;default path=&lt;br&gt;&amp;nbsp;fileRAVEN_config.model_home&lt;br&gt;note: default to OS default &lt;br&gt;dpwnloads folder" style="strokeWidth=3;html=1;shape=mxgraph.flowchart.display;whiteSpace=wrap;align=center;perimeterSpacing=0;fillColor=#0050ef;fontColor=#ffffff;strokeColor=#BCBCBC;fillStyle=solid;" vertex="1" parent="WIyWlLk6GJQsqaUBKTNV-1">
          <mxGeometry x="-530" y="1180" width="262" height="210" as="geometry" />
        </mxCell>
      </root>
    </mxGraphModel>
  </diagram>
</mxfile>
